<svg xmlns="http://www.w3.org/2000/svg" viewBox="0 0 1600 1050" role="img" aria-label="Praia com barraca, mar e sol">
  <defs>
    <linearGradient id="sky" x1="0" x2="0" y1="0" y2="1"><stop offset="0%" stop-color="#78d8ea"/><stop offset="58%" stop-color="#16a3b8"/><stop offset="100%" stop-color="#057c92"/></linearGradient>
    <linearGradient id="sand" x1="0" x2="1"><stop offset="0%" stop-color="#fff1c6"/><stop offset="100%" stop-color="#e8c77b"/></linearGradient>
    <filter id="blur"><feGaussianBlur stdDeviation="16"/></filter>
  </defs>
  <rect width="1600" height="1050" fill="url(#sky)"/>
  <circle cx="1280" cy="180" r="110" fill="#ffcf6a"/>
  <circle cx="1280" cy="180" r="170" fill="#ffcf6a" opacity=".22" filter="url(#blur)"/>
  <path d="M0 520 C220 450 390 560 580 500 C780 438 950 525 1160 470 C1340 425 1460 470 1600 430 L1600 670 L0 670Z" fill="#e8fbff" opacity=".86"/>
  <path d="M0 590 C250 525 410 635 640 575 C840 523 1010 610 1220 555 C1390 512 1485 570 1600 535 L1600 710 L0 710Z" fill="#ffffff" opacity=".75"/>
  <rect y="650" width="1600" height="400" fill="url(#sand)"/>
  <path d="M0 725 C260 690 420 760 700 718 C940 682 1180 752 1600 690" stroke="#fff8dc" stroke-width="26" opacity=".45" fill="none"/>
  <g transform="translate(180 420)">
    <rect x="0" y="210" width="570" height="78" rx="24" fill="#063b4f" opacity=".28"/>
    <path d="M80 190 L470 190 L410 58 L145 58Z" fill="#fffaf0"/>
    <path d="M145 58 C230 0 340 0 410 58" fill="#ffb548"/>
    <rect x="112" y="190" width="30" height="210" rx="15" fill="#8a5b32"/>
    <rect x="392" y="190" width="30" height="210" rx="15" fill="#8a5b32"/>
    <rect x="86" y="300" width="390" height="74" rx="28" fill="#ffffff" opacity=".92"/>
    <rect x="125" y="248" width="96" height="52" rx="14" fill="#057c92" opacity=".82"/>
    <rect x="340" y="248" width="96" height="52" rx="14" fill="#057c92" opacity=".82"/>
  </g>
  <g transform="translate(1020 520) rotate(-2)">
    <rect x="0" y="230" width="360" height="66" rx="24" fill="#063b4f" opacity=".2"/>
    <path d="M35 185 L305 185 L270 60 L75 60Z" fill="#fffaf0"/>
    <path d="M75 60 C135 18 220 18 270 60" fill="#ff6f59"/>
    <rect x="160" y="185" width="22" height="190" rx="11" fill="#8a5b32"/>
  </g>
  <path d="M62 870 C270 815 420 920 645 850 C850 785 1110 885 1510 805" stroke="#063b4f" stroke-opacity=".16" stroke-width="10" stroke-linecap="round" fill="none"/>
  <g opacity=".68" fill="#2f7d59">
    <path d="M1440 515 C1380 380 1400 285 1495 170 C1475 310 1495 420 1440 515Z"/>
    <path d="M1445 515 C1490 380 1570 322 1600 270 C1560 400 1530 485 1445 515Z"/>
  </g>
</svg>