<svg xmlns="http://www.w3.org/2000/svg" viewBox="0 0 900 700" role="img" aria-label="Agulhinha">
  <defs>
    <linearGradient id="g" x1="0" x2="1" y1="0" y2="1">
      <stop offset="0%" stop-color="#047c91"/>
      <stop offset="100%" stop-color="#f4dc92"/>
    </linearGradient>
    <radialGradient id="sun" cx="72%" cy="20%" r="38%">
      <stop offset="0%" stop-color="#fff6c8" stop-opacity=".9"/>
      <stop offset="100%" stop-color="#fff6c8" stop-opacity="0"/>
    </radialGradient>
    <filter id="shadow" x="-20%" y="-20%" width="140%" height="140%">
      <feDropShadow dx="0" dy="18" stdDeviation="18" flood-color="#063b4f" flood-opacity=".22"/>
    </filter>
  </defs>
  <rect width="900" height="700" fill="url(#g)"/>
  <rect width="900" height="700" fill="url(#sun)"/>
  <circle cx="720" cy="120" r="74" fill="#ffd670" opacity=".9"/>
  <path d="M0 450 C150 410 240 496 390 454 C550 408 650 450 900 408 L900 700 L0 700 Z" fill="#f8edcf" opacity=".96"/>
  <path d="M0 520 C150 490 310 552 455 512 C650 462 730 535 900 486 L900 700 L0 700 Z" fill="#fffaf0" opacity=".92"/>
  <path d="M0 360 C150 315 270 410 440 362 C610 315 740 380 900 330" fill="none" stroke="#dff8ff" stroke-width="18" stroke-linecap="round" opacity=".78"/>
  <path d="M0 397 C150 352 280 447 440 397 C610 351 720 420 900 370" fill="none" stroke="#ffffff" stroke-width="10" stroke-linecap="round" opacity=".75"/>
  <g filter="url(#shadow)">
    <rect x="92" y="92" width="456" height="306" rx="42" fill="#ffffff" opacity=".92"/>
    <text x="130" y="190" font-size="78" font-family="Arial, sans-serif">🐠</text>
    <text x="130" y="270" font-size="48" font-weight="800" font-family="Arial, sans-serif" fill="#063b4f">Agulhinha</text>
    <text x="130" y="326" font-size="28" font-family="Arial, sans-serif" fill="#667b84">Crocante</text>
  </g>
  <g opacity=".28" fill="#063b4f">
    <circle cx="735" cy="535" r="8"/>
    <circle cx="770" cy="568" r="5"/>
    <circle cx="690" cy="590" r="6"/>
    <circle cx="810" cy="510" r="9"/>
  </g>
</svg>